<svg width="40" height="40" viewBox="0 0 40 40" fill="none" xmlns="http://www.w3.org/2000/svg">
<path d="M0 10C0 4.47715 4.47715 0 10 0H30C35.5228 0 40 4.47715 40 10V30C40 35.5228 35.5228 40 30 40H10C4.47715 40 0 35.5228 0 30V10Z" fill="#F5F5F6"/>
<path fill-rule="evenodd" clip-rule="evenodd" d="M11.8787 9.87868C12.4413 9.31607 13.2044 9 14 9H23C23.2652 9 23.5196 9.10536 23.7071 9.29289L28.7071 14.2929C28.8946 14.4804 29 14.7348 29 15V28C29 28.7957 28.6839 29.5587 28.1213 30.1213C27.5587 30.6839 26.7957 31 26 31H12C11.4477 31 11 30.5523 11 30C11 29.4477 11.4477 29 12 29H26C26.2652 29 26.5196 28.8946 26.7071 28.7071C26.8946 28.5196 27 28.2652 27 28V15.4142L22.5858 11H14C13.7348 11 13.4804 11.1054 13.2929 11.2929C13.1054 11.4804 13 11.7348 13 12V16C13 16.5523 12.5523 17 12 17C11.4477 17 11 16.5523 11 16V12C11 11.2044 11.3161 10.4413 11.8787 9.87868Z" fill="#737373"/>
<path fill-rule="evenodd" clip-rule="evenodd" d="M22 9C22.5523 9 23 9.44772 23 10V14C23 14.2652 23.1054 14.5196 23.2929 14.7071C23.4804 14.8946 23.7348 15 24 15H28C28.5523 15 29 15.4477 29 16C29 16.5523 28.5523 17 28 17H24C23.2044 17 22.4413 16.6839 21.8787 16.1213C21.3161 15.5587 21 14.7957 21 14V10C21 9.44772 21.4477 9 22 9Z" fill="#737373"/>
<path fill-rule="evenodd" clip-rule="evenodd" d="M10 23C10 22.4477 10.4477 22 11 22H17C17.5523 22 18 22.4477 18 23C18 23.5523 17.5523 24 17 24H11C10.4477 24 10 23.5523 10 23Z" fill="#737373"/>
<path fill-rule="evenodd" clip-rule="evenodd" d="M14 19C14.5523 19 15 19.4477 15 20V26C15 26.5523 14.5523 27 14 27C13.4477 27 13 26.5523 13 26V20C13 19.4477 13.4477 19 14 19Z" fill="#737373"/>
</svg>
